<?xml version="1.0" encoding="UTF-8"?>
<svg id="Layer_1" data-name="Layer 1" xmlns="http://www.w3.org/2000/svg" version="1.1" xmlns:xlink="http://www.w3.org/1999/xlink" viewBox="0 0 128 128">
  <defs>
    <style>
      .cls-1 {
        fill: url(#linear-gradient);
      }

      .cls-1, .cls-2, .cls-3, .cls-4 {
        stroke-width: 0px;
      }

      .cls-2 {
        fill: #2c439b;
      }

      .cls-3 {
        fill: #f7f5f7;
      }

      .cls-4 {
        fill: url(#linear-gradient-2);
      }
    </style>
    <linearGradient id="linear-gradient" x1="69.52" y1="80.22" x2="93.35" y2="34.89" gradientUnits="userSpaceOnUse">
      <stop offset="0" stop-color="#4d64af"/>
      <stop offset="1" stop-color="#76a9db"/>
    </linearGradient>
    <linearGradient id="linear-gradient-2" x1="47.82" y1="20.17" x2="43.99" y2="62.72" xlink:href="#linear-gradient"/>
  </defs>
  <rect class="cls-2" x="-1.57" y="-1.57" width="131.14" height="131.14"/>
  <path class="cls-3" d="M112.12,85.12v-43.84c0-3.68-1.96-7.08-5.15-8.92l-37.96-21.92c-3.19-1.84-7.11-1.84-10.3,0l-37.96,21.92c-3.19,1.84-5.15,5.24-5.15,8.92v43.84c0,3.68,1.96,7.08,5.15,8.92l37.96,21.92c3.19,1.84,7.11,1.84,10.3,0l37.96-21.92c3.19-1.84,5.15-5.24,5.15-8.92Z"/>
  <path class="cls-1" d="M98.54,36.94l-6.16-3.56-15.88-9.17-6.31-3.64c-1.38-.79-2.88-1.28-4.41-1.46v66.82l10.72-6.42,15.88-9.51v10.05l-15.88,9.17-10.72,6.19v11.89c1.53-.17,3.03-.66,4.41-1.46l6.31-3.64,15.88-9.17,6.16-3.56c3.53-2.04,5.71-5.81,5.71-9.89v-32.75c0-4.08-2.18-7.85-5.71-9.89ZM76.49,66.84v-28.48l15.88,9.88v9.09l-15.88,9.51Z"/>
  <path class="cls-4" d="M35.38,68.94v10.88l15.88,9.17,10.72,6.19v11.89c-1.53-.18-3.03-.66-4.41-1.46l-6.31-3.64-15.88-9.17-6.16-3.56c-3.54-2.04-5.71-5.81-5.71-9.89v-32.75c0-4.08,2.18-7.85,5.71-9.89l6.16-3.56,15.88-9.17,6.31-3.64c1.38-.8,2.88-1.28,4.41-1.46v13.39l-26.61,16.12v8.62h25.03c1.18,0,2.13.95,2.13,2.13v7.67c0,1.18-.95,2.13-2.13,2.13h-25.03Z"/>
</svg>